<svg width="25" height="25" viewBox="0 0 25 25" fill="none" xmlns="http://www.w3.org/2000/svg">
<path d="M16.9959 9.87416C17.0656 9.94381 17.121 10.0265 17.1587 10.1176C17.1964 10.2086 17.2159 10.3062 17.2159 10.4048C17.2159 10.5033 17.1964 10.6009 17.1587 10.692C17.121 10.783 17.0656 10.8658 16.9959 10.9354L11.7459 16.1854C11.6762 16.2551 11.5935 16.3105 11.5025 16.3482C11.4114 16.3859 11.3138 16.4054 11.2153 16.4054C11.1167 16.4054 11.0191 16.3859 10.9281 16.3482C10.837 16.3105 10.7543 16.2551 10.6846 16.1854L8.43465 13.9354C8.29392 13.7947 8.21486 13.6038 8.21486 13.4048C8.21486 13.2058 8.29392 13.0149 8.43465 12.8742C8.57538 12.7334 8.76625 12.6544 8.96528 12.6544C9.1643 12.6544 9.35517 12.7334 9.4959 12.8742L11.2153 14.5945L15.9346 9.87416C16.0043 9.80443 16.087 9.74911 16.1781 9.71137C16.2691 9.67362 16.3667 9.65419 16.4653 9.65419C16.5638 9.65419 16.6614 9.67362 16.7525 9.71137C16.8435 9.74911 16.9262 9.80443 16.9959 9.87416ZM22.4653 12.6548C22.4653 14.5832 21.8934 16.4682 20.8221 18.0716C19.7508 19.675 18.228 20.9247 16.4464 21.6626C14.6649 22.4006 12.7045 22.5936 10.8131 22.2174C8.92183 21.8412 7.18455 20.9126 5.82098 19.5491C4.45742 18.1855 3.52882 16.4482 3.15262 14.5569C2.77641 12.6656 2.9695 10.7052 3.70745 8.92362C4.4454 7.14204 5.69509 5.6193 7.29847 4.54796C8.90184 3.47661 10.7869 2.90479 12.7153 2.90479C15.3003 2.90751 17.7787 3.93562 19.6066 5.76351C21.4344 7.5914 22.4625 10.0698 22.4653 12.6548ZM20.9653 12.6548C20.9653 11.0231 20.4814 9.42804 19.5749 8.07133C18.6684 6.71463 17.3799 5.6572 15.8724 5.03278C14.3649 4.40836 12.7061 4.24498 11.1058 4.56331C9.50544 4.88163 8.03543 5.66737 6.88164 6.82115C5.72786 7.97494 4.94212 9.44495 4.6238 11.0453C4.30547 12.6456 4.46885 14.3044 5.09327 15.8119C5.71769 17.3194 6.77512 18.6079 8.13182 19.5144C9.48853 20.4209 11.0836 20.9048 12.7153 20.9048C14.9025 20.9023 16.9995 20.0323 18.5462 18.4857C20.0928 16.939 20.9628 14.8421 20.9653 12.6548Z" fill="#00A795"/>
</svg>
