<svg width="33" height="33" viewBox="0 0 33 33" fill="none" xmlns="http://www.w3.org/2000/svg">
<path d="M22.9653 4.65479C20.384 4.65479 18.124 5.76479 16.7153 7.64104C15.3065 5.76479 13.0465 4.65479 10.4653 4.65479C8.41055 4.6571 6.44065 5.47436 4.98774 6.92727C3.53484 8.38017 2.71758 10.3501 2.71526 12.4048C2.71526 21.1548 15.689 28.2373 16.2415 28.5298C16.3871 28.6081 16.5499 28.6491 16.7153 28.6491C16.8806 28.6491 17.0434 28.6081 17.189 28.5298C17.7415 28.2373 30.7153 21.1548 30.7153 12.4048C30.7129 10.3501 29.8957 8.38017 28.4428 6.92727C26.9899 5.47436 25.02 4.6571 22.9653 4.65479ZM16.7153 26.5048C14.4328 25.1748 4.71526 19.116 4.71526 12.4048C4.71725 10.8804 5.32369 9.41902 6.40159 8.34111C7.4795 7.26321 8.94088 6.65677 10.4653 6.65479C12.8965 6.65479 14.9378 7.94979 15.7903 10.0298C15.8656 10.2132 15.9938 10.3701 16.1585 10.4805C16.3232 10.5909 16.517 10.6498 16.7153 10.6498C16.9135 10.6498 17.1074 10.5909 17.2721 10.4805C17.4368 10.3701 17.5649 10.2132 17.6403 10.0298C18.4928 7.94604 20.534 6.65479 22.9653 6.65479C24.4896 6.65677 25.951 7.26321 27.0289 8.34111C28.1068 9.41902 28.7133 10.8804 28.7153 12.4048C28.7153 19.106 18.9953 25.1735 16.7153 26.5048Z" fill="#F7FFFB"/>
</svg>
