<svg width="33" height="33" viewBox="0 0 33 33" fill="none" xmlns="http://www.w3.org/2000/svg">
<path d="M22.4228 12.9473C22.5158 13.0402 22.5895 13.1504 22.6398 13.2718C22.6902 13.3932 22.7161 13.5234 22.7161 13.6548C22.7161 13.7862 22.6902 13.9163 22.6398 14.0377C22.5895 14.1591 22.5158 14.2694 22.4228 14.3623L15.4228 21.3623C15.3299 21.4553 15.2196 21.529 15.0982 21.5793C14.9768 21.6297 14.8467 21.6556 14.7153 21.6556C14.5839 21.6556 14.4537 21.6297 14.3323 21.5793C14.2109 21.529 14.1006 21.4553 14.0078 21.3623L11.0078 18.3623C10.8201 18.1746 10.7147 17.9201 10.7147 17.6548C10.7147 17.3894 10.8201 17.1349 11.0078 16.9473C11.1954 16.7596 11.4499 16.6542 11.7153 16.6542C11.9806 16.6542 12.2351 16.7596 12.4228 16.9473L14.7153 19.241L21.0078 12.9473C21.1006 12.8543 21.2109 12.7805 21.3323 12.7302C21.4537 12.6799 21.5839 12.654 21.7153 12.654C21.8467 12.654 21.9768 12.6799 22.0982 12.7302C22.2196 12.7805 22.3299 12.8543 22.4228 12.9473ZM29.7153 16.6548C29.7153 19.2259 28.9528 21.7394 27.5244 23.8772C26.0959 26.015 24.0656 27.6813 21.6902 28.6652C19.3147 29.6492 16.7009 29.9066 14.1791 29.405C11.6573 28.9034 9.34097 27.6653 7.52289 25.8472C5.70481 24.0291 4.46668 21.7127 3.96507 19.191C3.46346 16.6692 3.7209 14.0553 4.70484 11.6799C5.68878 9.30446 7.35502 7.27414 9.49286 5.84568C11.6307 4.41722 14.1441 3.65479 16.7153 3.65479C20.162 3.65842 23.4665 5.02923 25.9036 7.46642C28.3408 9.9036 29.7116 13.2081 29.7153 16.6548ZM27.7153 16.6548C27.7153 14.4792 27.0701 12.3525 25.8614 10.5435C24.6527 8.73457 22.9348 7.32467 20.9248 6.49211C18.9148 5.65955 16.7031 5.44171 14.5693 5.86615C12.4355 6.29058 10.4755 7.33823 8.9371 8.87661C7.39872 10.415 6.35108 12.375 5.92664 14.5088C5.5022 16.6426 5.72004 18.8543 6.5526 20.8643C7.38517 22.8743 8.79506 24.5923 10.604 25.801C12.4129 27.0096 14.5397 27.6548 16.7153 27.6548C19.6316 27.6515 22.4276 26.4915 24.4898 24.4293C26.552 22.3671 27.712 19.5712 27.7153 16.6548Z" fill="#08BCA9"/>
</svg>
