<svg width="33" height="33" viewBox="0 0 33 33" fill="none" xmlns="http://www.w3.org/2000/svg">
<path d="M15.7153 25.6547H9.71527C9.45005 25.6547 9.1957 25.5494 9.00816 25.3618C8.82063 25.1743 8.71527 24.92 8.71527 24.6547C8.71527 24.3895 8.82063 24.1352 9.00816 23.9476C9.1957 23.7601 9.45005 23.6547 9.71527 23.6547H15.7153C15.9805 23.6547 16.2348 23.7601 16.4224 23.9476C16.6099 24.1352 16.7153 24.3895 16.7153 24.6547C16.7153 24.92 16.6099 25.1743 16.4224 25.3618C16.2348 25.5494 15.9805 25.6547 15.7153 25.6547ZM23.7153 23.6547H20.7153C20.4501 23.6547 20.1957 23.7601 20.0082 23.9476C19.8206 24.1352 19.7153 24.3895 19.7153 24.6547C19.7153 24.92 19.8206 25.1743 20.0082 25.3618C20.1957 25.5494 20.4501 25.6547 20.7153 25.6547H23.7153C23.9805 25.6547 24.2348 25.5494 24.4224 25.3618C24.6099 25.1743 24.7153 24.92 24.7153 24.6547C24.7153 24.3895 24.6099 24.1352 24.4224 23.9476C24.2348 23.7601 23.9805 23.6547 23.7153 23.6547ZM20.7153 27.6547H13.7153C13.4501 27.6547 13.1957 27.7601 13.0082 27.9476C12.8206 28.1352 12.7153 28.3895 12.7153 28.6547C12.7153 28.92 12.8206 29.1743 13.0082 29.3618C13.1957 29.5494 13.4501 29.6547 13.7153 29.6547H20.7153C20.9805 29.6547 21.2348 29.5494 21.4224 29.3618C21.6099 29.1743 21.7153 28.92 21.7153 28.6547C21.7153 28.3895 21.6099 28.1352 21.4224 27.9476C21.2348 27.7601 20.9805 27.6547 20.7153 27.6547ZM29.7153 12.1547C29.7126 14.6735 28.7109 17.0883 26.9299 18.8693C25.1488 20.6503 22.734 21.6521 20.2153 21.6547H10.2153C8.49136 21.6547 6.83806 20.9699 5.61908 19.7509C4.40009 18.5319 3.71527 16.8786 3.71527 15.1547C3.71527 13.4308 4.40009 11.7775 5.61908 10.5585C6.83806 9.33956 8.49136 8.65474 10.2153 8.65474C10.5889 8.65506 10.9619 8.68684 11.3303 8.74974C12.1278 6.6782 13.6248 4.9509 15.562 3.8671C17.4992 2.7833 19.7545 2.4113 21.9371 2.81553C24.1198 3.21977 26.0922 4.37478 27.5128 6.08045C28.9334 7.78612 29.7125 9.93498 29.7153 12.1547ZM27.7153 12.1547C27.7073 10.2073 26.9428 8.33919 25.5834 6.94477C24.2239 5.55036 22.3758 4.73877 20.4292 4.68134C18.4826 4.62392 16.5899 5.32515 15.1506 6.63701C13.7113 7.94886 12.8381 9.76867 12.7153 11.7122C12.7077 11.8436 12.6744 11.9721 12.6171 12.0905C12.5599 12.209 12.4799 12.315 12.3817 12.4025C12.1834 12.5793 11.923 12.67 11.6578 12.6547C11.3926 12.6395 11.1443 12.5195 10.9675 12.3212C10.7908 12.1229 10.7 11.8625 10.7153 11.5972C10.7328 11.2922 10.7649 10.991 10.8115 10.6935C10.6138 10.6681 10.4146 10.6552 10.2153 10.6547C9.0218 10.6547 7.8772 11.1288 7.03329 11.9728C6.18938 12.8167 5.71527 13.9613 5.71527 15.1547C5.71527 16.3482 6.18938 17.4928 7.03329 18.3367C7.8772 19.1806 9.0218 19.6547 10.2153 19.6547H20.2153C22.2037 19.6524 24.11 18.8615 25.516 17.4555C26.922 16.0495 27.713 14.1432 27.7153 12.1547Z" fill="#08BCA9"/>
</svg>
