<svg width="25" height="25" viewBox="0 0 25 25" fill="none" xmlns="http://www.w3.org/2000/svg">
<path d="M22.3631 16.7798C22.4621 16.9517 22.4891 17.1558 22.4379 17.3475C22.3868 17.5392 22.2618 17.7029 22.0903 17.8026L13.0903 23.0526C12.9756 23.1195 12.8452 23.1547 12.7125 23.1547C12.5797 23.1547 12.4493 23.1195 12.3346 23.0526L3.33465 17.8026C3.16561 17.701 3.04338 17.5369 2.99443 17.3459C2.94547 17.1549 2.97373 16.9522 3.07308 16.7819C3.17244 16.6115 3.33489 16.4872 3.52527 16.4357C3.71564 16.3842 3.91863 16.4098 4.09027 16.507L12.7153 21.5366L21.3403 16.507C21.5122 16.4079 21.7163 16.381 21.908 16.4321C22.0997 16.4833 22.2633 16.6083 22.3631 16.7798ZM21.3403 12.007L12.7153 17.0366L4.09027 12.007C3.9195 11.9219 3.72275 11.9052 3.54006 11.9601C3.35737 12.015 3.20247 12.1375 3.1069 12.3026C3.01133 12.4677 2.98226 12.663 3.02562 12.8488C3.06897 13.0346 3.18149 13.1968 3.34027 13.3026L12.3403 18.5526C12.455 18.6195 12.5853 18.6547 12.7181 18.6547C12.8508 18.6547 12.9812 18.6195 13.0959 18.5526L22.0959 13.3026C22.1823 13.2537 22.2582 13.1881 22.3191 13.1096C22.38 13.0312 22.4247 12.9414 22.4506 12.8455C22.4765 12.7496 22.4831 12.6496 22.4701 12.5511C22.457 12.4526 22.4245 12.3578 22.3744 12.272C22.3244 12.1862 22.2578 12.1112 22.1786 12.0513C22.0993 11.9915 22.009 11.9479 21.9128 11.9233C21.8165 11.8986 21.7164 11.8933 21.6181 11.9077C21.5198 11.9221 21.4254 11.9558 21.3403 12.007ZM2.96527 8.15477C2.96557 8.02341 3.00037 7.89443 3.06618 7.78074C3.13199 7.66705 3.22651 7.57264 3.34027 7.50696L12.3403 2.25696C12.455 2.19008 12.5853 2.15485 12.7181 2.15485C12.8508 2.15485 12.9812 2.19008 13.0959 2.25696L22.0959 7.50696C22.2091 7.57301 22.303 7.66758 22.3683 7.78125C22.4336 7.89491 22.468 8.0237 22.468 8.15477C22.468 8.28585 22.4336 8.41463 22.3683 8.5283C22.303 8.64196 22.2091 8.73653 22.0959 8.80258L13.0959 14.0526C12.9812 14.1195 12.8508 14.1547 12.7181 14.1547C12.5853 14.1547 12.455 14.1195 12.3403 14.0526L3.34027 8.80258C3.22651 8.7369 3.13199 8.64249 3.06618 8.5288C3.00037 8.41511 2.96557 8.28613 2.96527 8.15477ZM5.20402 8.15477L12.7153 12.5366L20.2265 8.15477L12.7153 3.7729L5.20402 8.15477Z" fill="#1D1A1C"/>
</svg>
