<svg width="33" height="33" viewBox="0 0 33 33" fill="none" xmlns="http://www.w3.org/2000/svg">
<path d="M26.7153 7.65479H23.2503L21.5465 5.09979C21.4552 4.96297 21.3316 4.85079 21.1866 4.77317C21.0416 4.69555 20.8797 4.65488 20.7153 4.65479H12.7153C12.5508 4.65488 12.3889 4.69555 12.2439 4.77317C12.0989 4.85079 11.9753 4.96297 11.884 5.09979L10.179 7.65479H6.71527C5.91962 7.65479 5.15656 7.97086 4.59395 8.53346C4.03134 9.09607 3.71527 9.85914 3.71527 10.6548V24.6548C3.71527 25.4504 4.03134 26.2135 4.59395 26.7761C5.15656 27.3387 5.91962 27.6548 6.71527 27.6548H26.7153C27.5109 27.6548 28.274 27.3387 28.8366 26.7761C29.3992 26.2135 29.7153 25.4504 29.7153 24.6548V10.6548C29.7153 9.85914 29.3992 9.09607 28.8366 8.53346C28.274 7.97086 27.5109 7.65479 26.7153 7.65479ZM27.7153 24.6548C27.7153 24.92 27.6099 25.1744 27.4224 25.3619C27.2348 25.5494 26.9805 25.6548 26.7153 25.6548H6.71527C6.45005 25.6548 6.1957 25.5494 6.00816 25.3619C5.82063 25.1744 5.71527 24.92 5.71527 24.6548V10.6548C5.71527 10.3896 5.82063 10.1352 6.00816 9.94768C6.1957 9.76014 6.45005 9.65479 6.71527 9.65479H10.7153C10.8799 9.65489 11.0421 9.61433 11.1873 9.5367C11.3326 9.45907 11.4564 9.34677 11.5478 9.20979L13.2503 6.65479H20.179L21.8828 9.20979C21.9742 9.34677 22.098 9.45907 22.2432 9.5367C22.3884 9.61433 22.5506 9.65489 22.7153 9.65479H26.7153C26.9805 9.65479 27.2348 9.76014 27.4224 9.94768C27.6099 10.1352 27.7153 10.3896 27.7153 10.6548V24.6548ZM16.7153 11.6548C15.6275 11.6548 14.5641 11.9774 13.6596 12.5817C12.7552 13.186 12.0502 14.045 11.6339 15.05C11.2177 16.055 11.1087 17.1609 11.321 18.2278C11.5332 19.2947 12.057 20.2747 12.8262 21.0439C13.5954 21.8131 14.5754 22.3369 15.6423 22.5491C16.7092 22.7613 17.815 22.6524 18.82 22.2361C19.825 21.8198 20.684 21.1149 21.2884 20.2104C21.8927 19.306 22.2153 18.2426 22.2153 17.1548C22.2136 15.6966 21.6336 14.2986 20.6025 13.2675C19.5714 12.2364 18.1735 11.6564 16.7153 11.6548ZM16.7153 20.6548C16.023 20.6548 15.3463 20.4495 14.7708 20.0649C14.1952 19.6803 13.7466 19.1337 13.4817 18.4942C13.2168 17.8546 13.1475 17.1509 13.2825 16.472C13.4176 15.793 13.7509 15.1694 14.2404 14.6799C14.7299 14.1904 15.3535 13.8571 16.0325 13.722C16.7114 13.587 17.4151 13.6563 18.0547 13.9212C18.6942 14.1861 19.2408 14.6347 19.6254 15.2103C20.01 15.7859 20.2153 16.4626 20.2153 17.1548C20.2153 18.083 19.8465 18.9733 19.1901 19.6297C18.5338 20.286 17.6435 20.6548 16.7153 20.6548Z" fill="#08BCA9"/>
</svg>
