<svg width="33" height="33" viewBox="0 0 33 33" fill="none" xmlns="http://www.w3.org/2000/svg">
<path d="M17.2153 3.65479C13.9012 3.65842 10.7239 4.97655 8.38046 7.31997C6.03704 9.66339 4.71891 12.8407 4.71527 16.1548V26.696C4.71593 27.2153 4.92251 27.7132 5.28971 28.0804C5.6569 28.4475 6.15473 28.6541 6.67402 28.6548H17.2153C20.5305 28.6548 23.7099 27.3378 26.0541 24.9936C28.3983 22.6494 29.7153 19.47 29.7153 16.1548C29.7153 12.8396 28.3983 9.66016 26.0541 7.31595C23.7099 4.97175 20.5305 3.65479 17.2153 3.65479ZM17.2153 26.6548H6.71527V16.1548C6.71527 14.0781 7.33109 12.048 8.48484 10.3213C9.63859 8.59458 11.2785 7.24877 13.1971 6.45405C15.1157 5.65933 17.2269 5.45139 19.2637 5.85654C21.3005 6.26168 23.1714 7.26171 24.6399 8.73016C26.1083 10.1986 27.1084 12.0695 27.5135 14.1063C27.9187 16.1431 27.7107 18.2543 26.916 20.173C26.1213 22.0916 24.7755 23.7315 23.0488 24.8852C21.322 26.039 19.292 26.6548 17.2153 26.6548Z" fill="#08BCA9"/>
</svg>
