<svg width="33" height="33" viewBox="0 0 33 33" fill="none" xmlns="http://www.w3.org/2000/svg">
<path d="M12.7478 5.28604C12.7147 5.15882 12.707 5.02632 12.7251 4.89612C12.7433 4.76593 12.7869 4.64059 12.8536 4.52727C12.9202 4.41396 13.0085 4.3149 13.1135 4.23575C13.2185 4.15661 13.338 4.09894 13.4653 4.06604C15.5971 3.51624 17.8335 3.51624 19.9653 4.06604C20.2014 4.12649 20.4073 4.27111 20.5443 4.47269C20.6813 4.67428 20.74 4.91897 20.7093 5.16076C20.6786 5.40256 20.5606 5.62482 20.3776 5.78577C20.1945 5.94671 19.959 6.03527 19.7153 6.03479C19.6309 6.03435 19.5469 6.02343 19.4653 6.00229C17.6615 5.53705 15.7691 5.53705 13.9653 6.00229C13.7089 6.06844 13.4367 6.03018 13.2084 5.8959C12.9802 5.76163 12.8145 5.5423 12.7478 5.28604ZM7.43902 7.54729C5.89733 9.1172 4.77911 11.0526 4.18902 13.1723C4.11824 13.4279 4.1519 13.7011 4.28259 13.9319C4.41328 14.1627 4.6303 14.3321 4.8859 14.4029C5.1415 14.4737 5.41475 14.44 5.64554 14.3093C5.87632 14.1787 6.04574 13.9616 6.11652 13.706C6.61536 11.9118 7.56159 10.2735 8.86652 8.94479C9.03721 8.75279 9.12746 8.50247 9.11855 8.24573C9.10965 7.98899 9.00229 7.74552 8.81871 7.5658C8.63514 7.38609 8.38945 7.28392 8.13257 7.28047C7.8757 7.27702 7.62735 7.37257 7.43902 7.54729ZM6.11652 19.5985C6.08139 19.472 6.02168 19.3536 5.94079 19.2501C5.85991 19.1466 5.75943 19.0601 5.6451 18.9954C5.53076 18.9308 5.40482 18.8893 5.27445 18.8733C5.14408 18.8573 5.01183 18.8672 4.88527 18.9023C4.75871 18.9374 4.64031 18.9971 4.53682 19.078C4.43334 19.1589 4.3468 19.2594 4.28215 19.3737C4.21749 19.488 4.17599 19.614 4.16002 19.7444C4.14404 19.8747 4.15389 20.007 4.18902 20.1335C4.77947 22.2531 5.89763 24.1884 7.43902 25.7585C7.62501 25.9477 7.8785 26.0552 8.14375 26.0574C8.409 26.0596 8.66427 25.9564 8.8534 25.7704C9.04253 25.5844 9.15003 25.3309 9.15226 25.0657C9.15449 24.8004 9.05126 24.5452 8.86527 24.356C7.56195 23.0278 6.61629 21.3911 6.11652 19.5985ZM19.4653 27.3073C17.6615 27.773 15.769 27.773 13.9653 27.3073C13.8374 27.2722 13.7038 27.2628 13.5723 27.2798C13.4408 27.2968 13.314 27.3398 13.1992 27.4063C13.0845 27.4728 12.9841 27.5614 12.9039 27.667C12.8237 27.7726 12.7654 27.8932 12.7322 28.0216C12.6991 28.15 12.6918 28.2837 12.7108 28.4149C12.7298 28.5461 12.7747 28.6723 12.8429 28.786C12.9111 28.8997 13.0013 28.9987 13.1081 29.0773C13.215 29.1558 13.3364 29.2124 13.4653 29.2435C15.5971 29.7933 17.8335 29.7933 19.9653 29.2435C20.2185 29.174 20.4342 29.0077 20.5658 28.7805C20.6974 28.5533 20.7344 28.2834 20.6687 28.0292C20.6031 27.775 20.44 27.5568 20.2149 27.4217C19.9897 27.2866 19.7205 27.2455 19.4653 27.3073ZM28.5465 18.9048C28.4199 18.8697 28.2876 18.8598 28.1571 18.8759C28.0267 18.8919 27.9007 18.9335 27.7863 18.9983C27.672 19.0631 27.5715 19.1498 27.4907 19.2534C27.4098 19.3571 27.3502 19.4756 27.3153 19.6023C26.8167 21.3963 25.8704 23.0342 24.5653 24.3623C24.4733 24.456 24.4006 24.567 24.3515 24.6888C24.3024 24.8106 24.2777 24.9409 24.2789 25.0722C24.2801 25.2035 24.3072 25.3333 24.3586 25.4542C24.41 25.5751 24.4847 25.6847 24.5784 25.7767C24.6721 25.8687 24.7831 25.9413 24.9049 25.9905C25.0267 26.0396 25.157 26.0642 25.2883 26.063C25.4196 26.0618 25.5495 26.0347 25.6703 25.9833C25.7912 25.932 25.9008 25.8573 25.9928 25.7635C27.5347 24.1938 28.6529 22.2584 29.2428 20.1385C29.2783 20.0118 29.2885 19.8793 29.2727 19.7487C29.2569 19.618 29.2155 19.4917 29.1508 19.3771C29.0861 19.2625 28.9994 19.1618 28.8957 19.0807C28.792 18.9997 28.6734 18.9399 28.5465 18.9048ZM27.314 13.7123C27.3492 13.8389 27.4089 13.9573 27.4898 14.0607C27.5706 14.1642 27.6711 14.2508 27.7854 14.3154C27.8998 14.3801 28.0257 14.4216 28.1561 14.4375C28.2865 14.4535 28.4187 14.4437 28.5453 14.4085C28.6718 14.3734 28.7902 14.3137 28.8937 14.2328C28.9972 14.1519 29.0837 14.0514 29.1484 13.9371C29.2131 13.8228 29.2546 13.6968 29.2705 13.5665C29.2865 13.4361 29.2767 13.3039 29.2415 13.1773C28.6517 11.0575 27.5334 9.12203 25.9915 7.55229C25.8994 7.45864 25.7898 7.38405 25.6689 7.33277C25.548 7.28149 25.4181 7.25453 25.2868 7.25343C25.1555 7.25232 25.0252 7.2771 24.9034 7.32634C24.7817 7.37558 24.6708 7.44833 24.5771 7.54042C24.4835 7.6325 24.4089 7.74214 24.3576 7.86306C24.3063 7.98397 24.2794 8.11381 24.2783 8.24514C24.2772 8.37648 24.302 8.50675 24.3512 8.62851C24.4004 8.75027 24.4732 8.86114 24.5653 8.95479C25.869 10.2822 26.8148 11.9187 27.314 13.711V13.7123Z" fill="#08BCA9"/>
</svg>
