<svg width="476" height="61" viewBox="0 0 476 61" fill="none" xmlns="http://www.w3.org/2000/svg">
<path d="M0.5 12C0.5 5.37258 5.87258 0 12.5 0H177.282C183.909 0 189.282 5.37258 189.282 12V49C189.282 55.6274 183.909 61 177.282 61H12.5C5.87257 61 0.5 55.6274 0.5 49V12Z" fill="#D9D9D9"/>
<path d="M0.5 12C0.5 5.37258 5.95294 0 12.6795 0H177.103C183.829 0 189.282 5.37258 189.282 12V49C189.282 55.6274 183.829 61 177.103 61H12.6795C5.95294 61 0.5 55.6274 0.5 49V12Z" fill="#D9D9D9"/>
<path d="M286.718 12C286.718 5.37258 292.171 0 298.897 0H463.321C470.047 0 475.5 5.37258 475.5 12V49C475.5 55.6274 470.047 61 463.321 61H298.897C292.171 61 286.718 55.6274 286.718 49V12Z" fill="#D9D9D9"/>
<path d="M286.718 12C286.718 5.37258 292.171 0 298.897 0H463.321C470.047 0 475.5 5.37258 475.5 12V49C475.5 55.6274 470.047 61 463.321 61H298.897C292.171 61 286.718 55.6274 286.718 49V12Z" fill="#D9D9D9"/>
</svg>
